<?xml version="1.0" encoding="utf-8"?>
<!-- Generator: Adobe Illustrator 23.0.6, SVG Export Plug-In . SVG Version: 6.00 Build 0)  -->
<svg version="1.1" id="图层_1" xmlns="http://www.w3.org/2000/svg" xmlns:xlink="http://www.w3.org/1999/xlink" x="0px" y="0px"
	 viewBox="0 0 1024 1024" style="enable-background:new 0 0 1024 1024;" xml:space="preserve">
<style type="text/css">
	.st0{opacity:0.5;}
	.st1{fill:url(#SVGID_1_);}
	.st2{fill:url(#SVGID_2_);}
	.st3{opacity:0.8;fill:#FFFFFF;}
	.st4{opacity:0.2;fill:#003677;}
	.st5{fill:url(#SVGID_3_);}
	.st6{fill:url(#SVGID_4_);}
	.st7{opacity:0.2;fill:#236FFB;}
	.st8{fill:url(#SVGID_5_);}
	.st9{fill:#236FFB;}
</style>
<g>
	<g class="st0">
		<linearGradient id="SVGID_1_" gradientUnits="userSpaceOnUse" x1="591.0228" y1="167.6191" x2="591.0228" y2="632.0825">
			<stop  offset="0" style="stop-color:#39C2FF"/>
			<stop  offset="1" style="stop-color:#236FFB;stop-opacity:0"/>
		</linearGradient>
		<path class="st1" d="M847.2,630H334.9c-37.2,0-67.4-30.2-67.4-67.4V212.1c0-37.2,30.2-67.4,67.4-67.4h115.4
			c12.3,0,23.9,5.6,31.5,15.2l29.7,37c7.7,9.6,19.3,15.2,31.5,15.2h304.1c17.9,0,35,7.1,47.7,19.7c12.6,12.6,19.7,29.8,19.7,47.7
			v283.1C914.6,599.9,884.4,630,847.2,630"/>
	</g>
	<g>
		<linearGradient id="SVGID_2_" gradientUnits="userSpaceOnUse" x1="65.168" y1="467.2713" x2="736.4326" y2="467.2713">
			<stop  offset="0" style="stop-color:#39C2FF"/>
			<stop  offset="1" style="stop-color:#236FFB"/>
		</linearGradient>
		<path class="st2" d="M715.1,539.1H86.5c-11.8,0-21.3-9.6-21.3-21.3V416.8c0-11.8,9.6-21.3,21.3-21.3h628.6
			c11.8,0,21.3,9.6,21.3,21.3v100.9C736.4,529.5,726.9,539.1,715.1,539.1z"/>
		<circle class="st3" cx="149.4" cy="467.3" r="35.5"/>
		<path class="st4" d="M475.8,466.7l-32,32c-8.5,8.5-22.4,8.5-30.9,0l0,0c-8.5-8.5-8.5-22.4,0-30.9l32-32c8.5-8.5,22.4-8.5,30.9,0
			l0,0C484.3,444.3,484.3,458.2,475.8,466.7z"/>
		<path class="st4" d="M572.2,466.7l-32,32c-8.5,8.5-22.4,8.5-30.9,0l0,0c-8.5-8.5-8.5-22.4,0-30.9l32-32c8.5-8.5,22.4-8.5,30.9,0v0
			C580.8,444.3,580.8,458.2,572.2,466.7z"/>
		<path class="st4" d="M671.9,466.7l-32,32c-8.5,8.5-22.4,8.5-30.9,0l0,0c-8.5-8.5-8.5-22.4,0-30.9l32-32c8.5-8.5,22.4-8.5,30.9,0v0
			C680.5,444.3,680.5,458.2,671.9,466.7z"/>
		<linearGradient id="SVGID_3_" gradientUnits="userSpaceOnUse" x1="65.168" y1="637.3232" x2="736.4326" y2="637.3232">
			<stop  offset="0" style="stop-color:#39C2FF"/>
			<stop  offset="1" style="stop-color:#236FFB"/>
		</linearGradient>
		<path class="st5" d="M715.1,709.1H86.5c-11.8,0-21.3-9.6-21.3-21.3V586.9c0-11.8,9.6-21.3,21.3-21.3h628.6
			c11.8,0,21.3,9.6,21.3,21.3v100.9C736.4,699.6,726.9,709.1,715.1,709.1z"/>
		<circle class="st3" cx="149.4" cy="637.3" r="35.5"/>
		<path class="st4" d="M475.8,636.8l-32,32c-8.5,8.5-22.4,8.5-30.9,0h0c-8.5-8.5-8.5-22.4,0-30.9l32-32c8.5-8.5,22.4-8.5,30.9,0l0,0
			C484.3,614.4,484.3,628.2,475.8,636.8z"/>
		<path class="st4" d="M572.2,636.8l-32,32c-8.5,8.5-22.4,8.5-30.9,0l0,0c-8.5-8.5-8.5-22.4,0-30.9l32-32c8.5-8.5,22.4-8.5,30.9,0
			l0,0C580.8,614.4,580.8,628.2,572.2,636.8z"/>
		<path class="st4" d="M671.9,636.8l-32,32c-8.5,8.5-22.4,8.5-30.9,0l0,0c-8.5-8.5-8.5-22.4,0-30.9l32-32c8.5-8.5,22.4-8.5,30.9,0v0
			C680.5,614.4,680.5,628.2,671.9,636.8z"/>
		<linearGradient id="SVGID_4_" gradientUnits="userSpaceOnUse" x1="65.168" y1="807.3751" x2="736.4326" y2="807.3751">
			<stop  offset="0" style="stop-color:#39C2FF"/>
			<stop  offset="1" style="stop-color:#236FFB"/>
		</linearGradient>
		<path class="st6" d="M715.1,879.2H86.5c-11.8,0-21.3-9.6-21.3-21.3V756.9c0-11.8,9.6-21.3,21.3-21.3h628.6
			c11.8,0,21.3,9.6,21.3,21.3v100.9C736.4,869.6,726.9,879.2,715.1,879.2z"/>
		<circle class="st3" cx="149.4" cy="807.4" r="35.5"/>
		<path class="st4" d="M475.8,806.8l-32,32c-8.5,8.5-22.4,8.5-30.9,0h0c-8.5-8.5-8.5-22.4,0-30.9l32-32c8.5-8.5,22.4-8.5,30.9,0h0
			C484.3,784.4,484.3,798.3,475.8,806.8z"/>
		<path class="st4" d="M572.2,806.8l-32,32c-8.5,8.5-22.4,8.5-30.9,0l0,0c-8.5-8.5-8.5-22.4,0-30.9l32-32c8.5-8.5,22.4-8.5,30.9,0v0
			C580.8,784.4,580.8,798.3,572.2,806.8z"/>
		<path class="st4" d="M671.9,806.8l-32,32c-8.5,8.5-22.4,8.5-30.9,0l0,0c-8.5-8.5-8.5-22.4,0-30.9l32-32c8.5-8.5,22.4-8.5,30.9,0
			l0,0C680.5,784.4,680.5,798.3,671.9,806.8z"/>
	</g>
	<path class="st7" d="M797.8,335.8H395.3c-8.3,0-15-6.7-15-15v0c0-8.3,6.7-15,15-15h402.4c8.3,0,15,6.7,15,15v0
		C812.8,329,806.1,335.8,797.8,335.8z"/>
	<path class="st7" d="M797.8,436.3H395.3c-8.3,0-15-6.7-15-15v0c0-8.3,6.7-15,15-15h402.4c8.3,0,15,6.7,15,15v0
		C812.8,429.6,806.1,436.3,797.8,436.3z"/>
	<path class="st7" d="M745.8,536.9H395.3c-8.3,0-15-6.7-15-15v0c0-8.3,6.7-15,15-15h350.4c8.3,0,15,6.7,15,15v0
		C760.8,530.2,754.1,536.9,745.8,536.9z"/>
	<g>
		
			<linearGradient id="SVGID_5_" gradientUnits="userSpaceOnUse" x1="1045.5204" y1="628.6694" x2="883.6478" y2="797.8446" gradientTransform="matrix(1.1591 0.129 0.129 1.1591 -346.6596 -262.3566)">
			<stop  offset="0" style="stop-color:#236FFB"/>
			<stop  offset="1" style="stop-color:#236FFB;stop-opacity:0"/>
		</linearGradient>
		<polygon class="st8" points="959.3,631.9 799.6,791.6 760.8,752.8 920.5,593.1 		"/>
		
			<rect x="892.9" y="604.6" transform="matrix(0.7071 -0.7071 0.7071 0.7071 -177.3929 835.9062)" class="st9" width="54.9" height="54.9"/>
	</g>
</g>
</svg>
